<!DOCTYPE svg PUBLIC "-//W3C//DTD SVG 1.1//EN" "http://www.w3.org/Graphics/SVG/1.1/DTD/svg11.dtd">
<!-- Uploaded to: SVG Repo, www.svgrepo.com, Transformed by: SVG Repo Mixer Tools -->
<svg fill="#ffffff" width="800px" height="800px" viewBox="0 0 24 24" id="appartment-2" data-name="Flat Color" xmlns="http://www.w3.org/2000/svg" class="icon flat-color" stroke="#ffffff">
<g id="SVGRepo_bgCarrier" stroke-width="0"/>
<g id="SVGRepo_tracerCarrier" stroke-linecap="round" stroke-linejoin="round"/>
<g id="SVGRepo_iconCarrier">
<path id="secondary" d="M20.63,6.82,15.32,5.05a1,1,0,0,0-.9.14A1,1,0,0,0,14,6V21a1,1,0,0,0,1,1h6a1,1,0,0,0,1-1V8.72A2,2,0,0,0,20.63,6.82Z" style="fill: #039d6b;"/>
<path id="primary" d="M14,2H4A2,2,0,0,0,2,4V21a1,1,0,0,0,1,1H16V4A2,2,0,0,0,14,2Z" style="fill: #ffffff;"/>
<path id="secondary-2" data-name="secondary" d="M6,7A1,1,0,0,1,7,6h4a1,1,0,0,1,0,2H7A1,1,0,0,1,6,7Zm5,7H7a1,1,0,0,0-1,1v7h6V15A1,1,0,0,0,11,14Zm0-4H7a1,1,0,0,0,0,2h4a1,1,0,0,0,0-2Z" style="fill: #039d6b;"/>
</g>
</svg>